M48
; DRILL file {KiCad 9.0.3} date 2025-08-14T11:50:25+0100
; FORMAT={-:-/ absolute / metric / decimal}
; #@! TF.CreationDate,2025-08-14T11:50:25+01:00
; #@! TF.GenerationSoftware,Kicad,Pcbnew,9.0.3
; #@! TF.FileFunction,MixedPlating,1,4
FMAT,2
METRIC
; #@! TA.AperFunction,Plated,PTH,ComponentDrill
T1C0.250
; #@! TA.AperFunction,Plated,PTH,ViaDrill
T2C0.300
; #@! TA.AperFunction,Plated,PTH,ComponentDrill
T3C0.330
; #@! TA.AperFunction,Plated,PTH,ComponentDrill
T4C0.600
; #@! TA.AperFunction,Plated,PTH,ComponentDrill
T5C0.750
; #@! TA.AperFunction,Plated,PTH,ComponentDrill
T6C1.000
; #@! TA.AperFunction,Plated,PTH,ComponentDrill
T7C1.190
; #@! TA.AperFunction,Plated,PTH,ComponentDrill
T8C1.900
; #@! TA.AperFunction,Plated,PTH,ComponentDrill
T9C2.700
; #@! TA.AperFunction,NonPlated,NPTH,ComponentDrill
T10C0.650
; #@! TA.AperFunction,NonPlated,NPTH,ComponentDrill
T11C2.700
%
G90
G05
T1
X149.2Y-58.9
X149.2Y-60.275
X149.2Y-61.65
X150.575Y-58.9
X150.575Y-60.275
X150.575Y-61.65
X151.95Y-58.9
X151.95Y-60.275
X151.95Y-61.65
X169.6Y-59.2
X171.05Y-57.75
X171.05Y-59.2
X171.05Y-60.65
X172.5Y-59.2
T2
X94.36Y-43.953
X94.36Y-46.953
X94.36Y-50.552
X94.36Y-54.552
X94.36Y-57.953
X94.36Y-61.752
X94.36Y-65.752
X94.36Y-69.552
X94.36Y-73.552
X94.36Y-77.153
X94.36Y-80.352
X94.36Y-83.752
X94.36Y-87.152
X94.36Y-90.552
X94.36Y-93.552
X94.36Y-96.552
X98.36Y-45.052
X98.36Y-57.552
X98.36Y-82.55
X98.36Y-96.552
X98.37Y-89.552
X99.0Y-60.802
X100.71Y-68.252
X100.76Y-43.752
X102.663Y-96.552
X103.36Y-45.052
X103.36Y-54.552
X103.36Y-57.552
X103.36Y-62.552
X103.36Y-82.55
X103.36Y-92.552
X103.56Y-90.453
X105.25Y-90.5
X105.5Y-81.0
X107.36Y-96.552
X107.7Y-79.388
X107.75Y-82.25
X108.26Y-85.752
X108.36Y-45.052
X108.36Y-71.552
X108.85Y-50.972
X108.86Y-62.453
X108.86Y-90.552
X109.06Y-58.436
X109.75Y-81.0
X110.25Y-90.5
X111.02Y-77.403
X111.46Y-63.97
X111.46Y-65.77
X111.46Y-67.052
X111.46Y-68.252
X111.46Y-69.453
X112.36Y-64.87
X112.36Y-65.9
X112.36Y-66.8
X112.36Y-67.6
X112.36Y-68.552
X112.36Y-69.352
X112.36Y-72.552
X112.36Y-96.552
X113.1Y-63.9
X113.2Y-64.9
X113.2Y-65.9
X113.2Y-66.8
X113.2Y-67.6
X113.2Y-68.5
X113.2Y-69.4
X113.36Y-45.052
X113.36Y-51.552
X114.1Y-63.9
X114.1Y-64.9
X114.1Y-65.9
X114.1Y-66.8
X114.1Y-67.6
X114.1Y-68.5
X114.3Y-80.6
X114.36Y-60.552
X114.375Y-86.25
X114.4Y-82.7
X115.1Y-63.9
X115.1Y-64.9
X115.1Y-65.9
X115.1Y-66.8
X115.1Y-67.6
X115.1Y-68.5
X116.1Y-63.9
X116.1Y-64.9
X116.36Y-96.552
X117.2Y-63.9
X117.2Y-64.9
X117.5Y-80.9
X117.6Y-86.3
X118.6Y-69.9
X119.2Y-83.6
X120.36Y-96.552
X120.8Y-80.9
X120.8Y-86.2
X121.3Y-45.052
X122.25Y-68.5
X123.75Y-68.5
X123.9Y-62.4
X123.9Y-83.4
X124.36Y-75.552
X124.36Y-96.552
X125.1Y-84.8
X125.36Y-56.552
X125.66Y-63.953
X125.75Y-79.0
X126.36Y-72.552
X126.36Y-82.552
X126.76Y-75.552
X127.86Y-66.153
X128.0Y-91.1
X128.36Y-45.052
X128.36Y-52.552
X128.36Y-61.552
X128.36Y-80.752
X128.36Y-96.552
X128.4Y-79.0
X129.36Y-75.552
X129.835Y-65.444
X129.872Y-56.173
X130.16Y-68.552
X132.18Y-70.222
X132.36Y-75.552
X133.36Y-96.552
X134.051Y-88.25
X134.36Y-55.552
X134.36Y-63.552
X135.04Y-70.222
X135.86Y-75.052
X135.86Y-80.052
X135.86Y-85.052
X135.86Y-87.552
X135.86Y-90.052
X136.25Y-58.4
X136.5Y-64.4
X137.86Y-70.242
X138.11Y-86.552
X138.11Y-89.052
X138.11Y-92.302
X138.11Y-93.302
X138.11Y-94.302
X138.11Y-95.302
X138.36Y-77.552
X138.36Y-82.552
X138.36Y-96.552
X138.5Y-52.0
X138.75Y-63.0
X139.25Y-54.75
X139.36Y-85.302
X139.36Y-87.802
X139.36Y-90.552
X139.36Y-92.302
X139.36Y-93.302
X139.36Y-94.302
X139.36Y-95.302
X140.5Y-63.0
X140.61Y-86.552
X140.61Y-89.052
X140.61Y-92.302
X140.61Y-93.302
X140.61Y-94.302
X140.61Y-95.302
X140.645Y-68.0
X140.86Y-75.052
X140.86Y-80.052
X141.315Y-70.233
X141.86Y-85.302
X141.86Y-87.802
X141.86Y-90.552
X141.86Y-92.302
X141.86Y-93.302
X141.86Y-94.302
X141.86Y-95.302
X142.0Y-67.35
X142.36Y-96.552
X143.11Y-86.552
X143.11Y-89.052
X143.11Y-92.302
X143.11Y-93.302
X143.11Y-94.302
X143.11Y-95.302
X143.36Y-45.052
X143.36Y-50.552
X143.36Y-82.552
X143.847Y-67.362
X144.36Y-85.302
X144.36Y-87.802
X144.36Y-90.552
X144.36Y-93.302
X144.669Y-67.18
X145.387Y-54.7
X145.61Y-86.552
X145.61Y-89.052
X145.61Y-91.802
X145.61Y-94.552
X145.75Y-73.5
X145.759Y-60.482
X145.8Y-52.1
X146.36Y-96.552
X146.4Y-72.875
X146.8Y-64.17
X146.86Y-85.302
X146.86Y-87.802
X146.86Y-90.552
X146.86Y-93.302
X146.91Y-50.5
X147.0Y-72.268
X147.195Y-54.802
X147.5Y-49.25
X147.6Y-71.632
X147.924Y-51.1
X148.074Y-57.966
X148.1Y-86.65
X148.1Y-89.15
X148.1Y-91.9
X148.1Y-94.65
X148.36Y-77.552
X148.36Y-82.552
X148.711Y-51.501
X149.36Y-85.302
X149.36Y-87.802
X149.36Y-90.552
X149.36Y-93.302
X149.79Y-62.62
X150.065Y-54.761
X150.21Y-57.98
X150.36Y-96.552
X150.61Y-86.552
X150.61Y-89.052
X150.61Y-91.802
X150.61Y-94.552
X150.86Y-75.052
X150.86Y-80.052
X151.175Y-54.059
X151.3Y-71.5
X151.76Y-48.352
X151.86Y-85.302
X151.86Y-87.802
X151.86Y-90.552
X151.86Y-93.302
X151.935Y-71.013
X152.0Y-65.206
X152.14Y-49.175
X152.573Y-70.531
X152.93Y-60.28
X152.949Y-69.825
X153.11Y-86.552
X153.11Y-89.052
X153.11Y-91.802
X153.11Y-94.552
X153.218Y-68.562
X153.36Y-72.552
X153.36Y-77.552
X153.36Y-82.552
X153.912Y-67.95
X154.36Y-85.302
X154.36Y-87.802
X154.36Y-90.552
X154.36Y-93.302
X154.36Y-96.552
X154.66Y-68.357
X155.522Y-55.9
X155.581Y-61.769
X155.61Y-86.552
X155.61Y-89.052
X155.61Y-91.802
X155.61Y-94.552
X155.66Y-65.653
X155.86Y-70.052
X155.86Y-75.052
X155.86Y-80.052
X156.0Y-68.5
X156.213Y-60.08
X156.86Y-85.302
X156.86Y-87.802
X156.86Y-90.552
X156.86Y-93.302
X157.0Y-48.75
X158.11Y-86.552
X158.11Y-89.052
X158.11Y-91.802
X158.11Y-94.552
X158.15Y-63.55
X158.3Y-60.2
X158.36Y-72.552
X158.36Y-77.552
X158.36Y-82.552
X158.36Y-96.552
X158.76Y-52.152
X159.36Y-85.302
X159.36Y-87.802
X159.36Y-90.552
X159.36Y-93.302
X159.5Y-57.105
X159.96Y-46.552
X160.07Y-49.36
X160.1Y-51.902
X160.273Y-56.686
X160.6Y-61.45
X160.61Y-86.552
X160.61Y-89.052
X160.61Y-91.802
X160.61Y-94.552
X160.86Y-70.052
X160.86Y-75.052
X160.86Y-80.052
X160.9Y-51.902
X161.0Y-65.2
X161.072Y-56.39
X161.571Y-65.805
X161.7Y-51.902
X161.705Y-55.9
X161.86Y-85.302
X161.86Y-87.802
X161.86Y-90.552
X161.86Y-93.302
X162.318Y-56.946
X162.36Y-96.552
X162.392Y-66.082
X162.5Y-58.95
X162.81Y-45.052
X162.9Y-66.7
X162.913Y-57.5
X163.11Y-86.552
X163.11Y-89.052
X163.11Y-91.802
X163.11Y-94.552
X163.292Y-52.192
X163.36Y-72.552
X163.36Y-77.552
X163.36Y-82.552
X163.963Y-66.763
X164.092Y-52.182
X164.36Y-85.302
X164.36Y-87.802
X164.36Y-90.552
X164.36Y-93.302
X165.61Y-86.552
X165.61Y-89.052
X165.61Y-91.802
X165.61Y-94.552
X165.71Y-52.752
X166.36Y-96.552
X166.86Y-85.302
X166.86Y-87.802
X166.86Y-90.552
X166.86Y-93.302
X167.7Y-52.184
X167.7Y-52.984
X167.7Y-53.784
X167.7Y-55.005
X168.11Y-86.552
X168.11Y-89.052
X168.11Y-91.802
X168.11Y-94.552
X168.16Y-56.703
X168.16Y-62.453
X168.36Y-45.052
X168.36Y-49.552
X168.36Y-77.552
X168.36Y-82.552
X168.5Y-68.8
X169.36Y-85.302
X169.36Y-87.802
X169.36Y-90.552
X169.36Y-93.302
X170.17Y-43.453
X170.36Y-96.552
X170.61Y-84.052
X170.61Y-86.552
X170.61Y-89.052
X170.61Y-91.802
X170.61Y-94.552
X170.86Y-75.052
X170.86Y-80.052
X171.121Y-54.379
X172.11Y-82.802
X172.11Y-85.302
X172.11Y-87.802
X172.11Y-90.552
X172.11Y-93.302
X172.36Y-52.552
X172.865Y-65.935
X173.36Y-45.052
X173.51Y-61.652
X173.61Y-81.552
X173.61Y-84.052
X173.61Y-86.552
X173.61Y-89.052
X173.61Y-92.052
X173.61Y-94.552
X174.36Y-96.552
X174.86Y-82.802
X174.86Y-85.302
X174.86Y-87.802
X174.86Y-90.552
X174.86Y-93.302
X175.7Y-54.4
X175.86Y-81.552
X175.86Y-84.052
X175.86Y-86.552
X175.86Y-89.052
X175.86Y-92.052
X175.86Y-94.552
X176.2Y-61.9
X176.2Y-74.8
X176.96Y-77.73
X177.01Y-78.8
X177.01Y-79.64
X177.01Y-80.45
X177.02Y-76.4
X177.11Y-82.802
X177.11Y-85.302
X177.11Y-87.802
X177.11Y-90.552
X177.11Y-93.302
X177.81Y-76.41
X177.82Y-78.8
X177.82Y-79.64
X177.82Y-80.45
X178.11Y-81.552
X178.11Y-84.052
X178.11Y-86.552
X178.11Y-89.052
X178.11Y-92.052
X178.11Y-94.552
X178.3Y-58.9
X178.36Y-47.552
X178.36Y-96.552
X178.7Y-76.42
X178.7Y-78.79
X178.7Y-79.63
X178.7Y-80.44
X178.9Y-54.7
X179.0Y-51.7
X179.1Y-58.1
X179.36Y-82.802
X179.36Y-85.302
X179.36Y-87.802
X179.36Y-90.552
X179.36Y-93.302
X179.45Y-78.79
X179.45Y-79.63
X179.45Y-80.44
X180.0Y-51.9
X180.0Y-53.2
X180.1Y-54.5
X180.1Y-57.5
X180.1Y-58.8
X180.1Y-60.0
X180.1Y-75.25
X180.12Y-77.77
X180.13Y-76.51
X180.2Y-78.79
X180.2Y-79.63
X180.2Y-80.44
X180.235Y-62.345
X180.24Y-47.125
X180.24Y-70.435
X180.36Y-81.552
X180.36Y-84.052
X180.36Y-86.552
X180.36Y-89.052
X180.36Y-92.052
X180.36Y-94.552
X180.9Y-51.3
X180.9Y-52.1
X180.9Y-52.9
X180.9Y-53.7
X180.95Y-54.5
X181.0Y-56.9
X181.0Y-57.7
X181.0Y-58.6
X181.0Y-59.4
X181.0Y-60.2
X181.0Y-77.25
X181.0Y-78.0
X181.0Y-78.79
X181.0Y-79.63
X181.0Y-80.44
X181.01Y-76.5
X181.03Y-75.73
X181.04Y-74.98
X181.61Y-82.802
X181.61Y-85.302
X181.61Y-87.802
X181.61Y-90.552
X181.61Y-93.302
X181.65Y-51.3
X181.65Y-52.1
X181.65Y-52.9
X181.65Y-53.7
X181.7Y-45.9
X181.7Y-54.5
X181.75Y-56.9
X181.75Y-57.7
X181.75Y-58.6
X181.75Y-59.4
X181.75Y-60.2
X181.75Y-77.25
X181.75Y-78.0
X181.75Y-78.79
X181.75Y-79.63
X181.75Y-80.44
X181.76Y-76.5
X181.78Y-75.73
X181.79Y-74.98
X182.0Y-45.3
X182.0Y-46.5
X182.0Y-47.3
X182.0Y-48.1
X182.36Y-96.552
X182.4Y-45.9
X182.4Y-51.3
X182.4Y-52.1
X182.4Y-52.9
X182.4Y-53.7
X182.45Y-54.5
X182.5Y-56.9
X182.5Y-57.7
X182.5Y-58.6
X182.5Y-59.4
X182.5Y-60.2
X182.5Y-77.25
X182.5Y-78.0
X182.5Y-78.79
X182.5Y-79.63
X182.5Y-80.44
X182.51Y-76.5
X182.53Y-75.73
X182.54Y-74.98
X182.61Y-81.552
X182.61Y-84.052
X182.61Y-86.552
X182.61Y-89.052
X182.61Y-92.052
X182.61Y-94.552
X182.8Y-45.3
X182.8Y-46.49
X182.8Y-47.3
X182.8Y-48.1
X183.15Y-87.3
X183.2Y-45.9
X183.25Y-54.5
X183.25Y-78.0
X183.25Y-78.79
X183.25Y-79.63
X183.25Y-80.44
X183.3Y-56.9
X183.3Y-57.7
X183.6Y-45.3
X183.6Y-46.49
X183.61Y-82.802
X183.61Y-85.302
X183.61Y-87.802
X183.61Y-90.552
X183.61Y-93.302
X184.0Y-45.9
X184.0Y-54.5
X184.0Y-78.0
X184.0Y-78.79
X184.0Y-79.63
X184.0Y-80.44
X184.05Y-56.9
X184.05Y-57.7
X184.4Y-45.3
X184.4Y-46.5
X184.61Y-81.552
X184.61Y-84.052
X184.61Y-86.552
X184.61Y-89.052
X184.61Y-92.052
X184.61Y-94.552
X184.9Y-45.9
X184.9Y-47.8
X185.61Y-82.802
X185.61Y-85.302
X185.61Y-87.802
X185.61Y-90.552
X185.61Y-93.302
X185.7Y-45.3
X185.7Y-46.5
X185.7Y-47.8
X185.7Y-53.2
X185.7Y-54.5
X185.7Y-58.115
X185.7Y-58.8
X185.7Y-60.0
X185.7Y-61.4
X185.7Y-62.9
X185.7Y-64.3
X185.7Y-72.6
X185.8Y-65.6
X185.8Y-68.5
X185.8Y-69.8
X185.8Y-71.1
X185.8Y-76.6
X185.9Y-77.8
X186.0Y-49.4
X186.36Y-96.552
X186.4Y-73.2
X186.61Y-81.552
X186.61Y-84.052
X186.61Y-86.552
X186.61Y-89.052
X186.61Y-92.052
X186.61Y-94.552
X187.1Y-45.5
X187.1Y-46.6
X187.1Y-47.9
X187.1Y-48.9
X187.1Y-49.9
X187.1Y-50.8
X187.1Y-51.7
X187.1Y-52.5
X187.1Y-53.3
X187.1Y-54.1
X187.1Y-54.9
X187.1Y-56.1
X187.2Y-57.0
X187.2Y-57.9
X187.2Y-58.9
X187.2Y-59.8
X187.2Y-60.8
X187.2Y-61.8
X187.2Y-62.8
X187.2Y-63.7
X187.2Y-64.5
X187.2Y-65.3
X187.2Y-66.1
X187.2Y-66.9
X187.2Y-68.6
X187.2Y-69.4
X187.2Y-70.2
X187.2Y-71.0
X187.2Y-71.8
X187.2Y-72.8
X187.2Y-73.8
X187.2Y-74.9
X187.2Y-76.0
X187.2Y-76.8
X187.2Y-77.6
X187.2Y-78.4
X188.0Y-45.5
X188.0Y-46.6
X188.0Y-51.7
X188.0Y-52.5
X188.0Y-53.3
X188.0Y-54.1
X188.0Y-54.9
X188.0Y-56.1
X188.1Y-57.0
X188.1Y-57.9
X188.1Y-58.9
X188.1Y-63.7
X188.1Y-64.5
X188.1Y-65.3
X188.1Y-66.1
X188.1Y-66.9
X188.1Y-68.6
X188.1Y-69.4
X188.1Y-70.2
X188.1Y-71.0
X188.1Y-71.8
X188.1Y-76.0
X188.1Y-76.8
X188.1Y-77.6
X188.1Y-78.4
X188.11Y-81.552
X188.11Y-82.552
X188.11Y-91.052
X188.11Y-93.552
X188.36Y-83.552
X188.36Y-85.802
X188.36Y-88.302
X189.11Y-92.302
X189.11Y-95.302
X189.36Y-81.552
X189.36Y-82.552
X189.36Y-84.802
X189.36Y-87.302
X189.61Y-89.552
X190.11Y-83.552
X190.11Y-91.052
X190.11Y-93.552
X190.36Y-96.552
X190.814Y-73.529
X190.85Y-48.95
X190.851Y-61.192
X190.96Y-81.953
X191.36Y-84.802
X191.36Y-89.552
X191.36Y-92.302
X191.36Y-95.302
X191.65Y-87.3
X192.121Y-49.006
X192.154Y-73.54
X192.227Y-61.168
X192.36Y-83.552
X192.36Y-91.052
X192.36Y-93.552
X193.11Y-87.052
X193.36Y-84.802
X193.36Y-89.552
X193.46Y-81.953
X193.61Y-92.302
X193.61Y-95.302
X194.36Y-96.552
X194.61Y-83.552
X194.61Y-85.802
X194.61Y-88.302
X194.61Y-91.052
X194.61Y-93.552
X195.36Y-43.152
X195.676Y-56.013
X195.676Y-56.9
X195.676Y-57.8
X195.676Y-58.7
X195.676Y-59.6
X195.676Y-60.5
X195.676Y-61.4
X195.676Y-62.3
X195.676Y-63.2
X195.676Y-65.9
X195.7Y-44.9
X195.7Y-45.9
X195.7Y-46.9
X195.7Y-47.9
X195.7Y-48.9
X195.7Y-49.9
X195.7Y-50.9
X195.7Y-51.9
X195.7Y-52.9
X195.7Y-54.0
X195.7Y-64.1
X195.7Y-65.0
X195.7Y-66.8
X195.86Y-84.552
X195.86Y-87.052
X195.86Y-89.552
X195.86Y-95.302
X195.9Y-68.2
X195.9Y-69.2
X195.9Y-70.2
X195.9Y-71.2
X195.9Y-72.3
X195.9Y-73.3
X195.9Y-74.3
X195.9Y-75.3
X195.9Y-76.3
X195.96Y-80.453
X195.96Y-81.953
X196.11Y-92.302
X196.2Y-54.8
X196.6Y-56.0
X196.6Y-56.9
X196.6Y-57.8
X196.6Y-58.7
X196.6Y-59.6
X196.6Y-60.5
X196.6Y-61.4
X196.6Y-62.3
X196.6Y-63.2
X196.6Y-64.1
X196.6Y-65.0
X196.6Y-65.9
X196.6Y-66.8
X196.8Y-44.9
X196.8Y-45.9
X196.8Y-46.9
X196.8Y-47.9
X196.8Y-48.9
X196.8Y-49.9
X196.8Y-50.9
X196.8Y-51.9
X196.8Y-52.9
X196.8Y-54.0
X197.1Y-68.2
X197.1Y-69.2
X197.1Y-70.2
X197.1Y-71.2
X197.1Y-72.3
X197.1Y-73.3
X197.1Y-74.3
X197.1Y-75.3
X197.1Y-76.3
X197.11Y-83.552
X197.11Y-85.802
X197.11Y-88.302
X197.11Y-91.052
X197.11Y-93.552
X197.3Y-54.8
X197.6Y-56.0
X197.6Y-56.9
X197.6Y-57.8
X197.6Y-58.7
X197.6Y-59.6
X197.6Y-60.5
X197.6Y-61.4
X197.6Y-62.3
X197.6Y-63.2
X197.6Y-64.1
X197.6Y-65.0
X197.6Y-65.9
X197.6Y-66.8
X197.8Y-44.9
X197.8Y-45.9
X197.8Y-46.9
X197.8Y-47.9
X197.8Y-48.9
X197.8Y-49.9
X197.8Y-50.9
X197.8Y-51.9
X197.8Y-52.9
X197.8Y-54.0
X197.96Y-43.152
X198.36Y-92.302
X198.36Y-95.302
X198.36Y-96.552
X198.4Y-68.2
X198.4Y-69.2
X198.4Y-70.2
X198.4Y-71.2
X198.4Y-72.3
X198.4Y-73.3
X198.4Y-74.3
X198.4Y-75.3
X198.4Y-76.3
X198.5Y-60.2
X198.5Y-62.6
X198.8Y-67.2
X198.9Y-44.9
X198.9Y-45.9
X198.9Y-46.9
X198.9Y-47.9
X198.9Y-48.9
X198.9Y-49.9
X198.9Y-50.9
X198.9Y-51.9
X198.9Y-52.9
X198.9Y-54.0
X198.9Y-55.0
X198.9Y-56.0
X199.26Y-80.453
X199.26Y-81.953
X199.6Y-68.2
X199.6Y-69.2
X199.6Y-70.2
X199.6Y-71.2
X199.6Y-72.3
X199.6Y-73.3
X199.6Y-74.3
X199.6Y-75.3
X199.6Y-76.3
X199.61Y-93.552
X200.0Y-44.9
X200.0Y-45.9
X200.0Y-46.9
X200.0Y-47.9
X200.0Y-48.9
X200.0Y-49.9
X200.0Y-50.9
X200.0Y-51.9
X200.0Y-52.9
X200.0Y-54.0
X200.0Y-55.0
X200.0Y-67.2
X200.1Y-56.0
X200.56Y-43.152
X200.8Y-68.2
X200.8Y-69.2
X200.8Y-70.2
X200.8Y-71.2
X200.8Y-72.3
X200.8Y-73.3
X200.8Y-74.3
X200.8Y-75.3
X200.8Y-76.3
X201.11Y-92.302
X201.11Y-95.302
X201.2Y-44.9
X201.2Y-45.9
X201.2Y-46.9
X201.2Y-47.9
X201.2Y-48.9
X201.2Y-49.9
X201.2Y-50.9
X201.2Y-51.9
X201.2Y-52.9
X201.2Y-54.0
X201.2Y-55.0
X201.3Y-67.2
X201.4Y-56.0
X202.1Y-68.2
X202.1Y-69.2
X202.1Y-70.2
X202.1Y-71.2
X202.1Y-72.3
X202.1Y-73.3
X202.1Y-74.3
X202.1Y-75.3
X202.1Y-76.3
X202.16Y-44.652
X202.16Y-46.652
X202.2Y-57.2
X202.2Y-58.2
X202.2Y-59.2
X202.2Y-60.5
X202.2Y-61.5
X202.2Y-62.5
X202.2Y-63.9
X202.2Y-64.9
X202.2Y-65.8
X202.26Y-91.252
X202.26Y-93.852
X202.3Y-47.9
X202.3Y-48.9
X202.3Y-49.9
X202.3Y-50.9
X202.3Y-51.9
X202.3Y-52.9
X202.3Y-54.0
X202.3Y-55.0
X202.36Y-96.552
X202.5Y-56.0
X202.56Y-80.453
X202.56Y-81.953
X202.56Y-83.752
X202.56Y-85.953
X202.66Y-87.752
X202.66Y-89.453
X202.7Y-67.0
X203.36Y-43.152
X203.36Y-95.302
X203.4Y-48.052
X203.4Y-48.9
X203.4Y-49.9
X203.4Y-50.9
X203.4Y-51.9
X203.4Y-52.9
X203.4Y-54.0
X203.4Y-55.0
X203.4Y-57.2
X203.4Y-58.2
X203.4Y-59.2
X203.4Y-60.5
X203.4Y-61.5
X203.4Y-62.5
X203.4Y-63.9
X203.4Y-64.9
X203.4Y-65.8
X203.4Y-68.2
X203.4Y-69.2
X203.4Y-70.2
X203.4Y-71.2
X203.4Y-72.3
X203.4Y-73.3
X203.4Y-74.3
X203.4Y-75.3
X203.4Y-76.3
X203.66Y-89.953
X203.8Y-56.0
X204.0Y-67.0
X204.46Y-81.252
X204.46Y-83.752
X204.7Y-57.2
X204.7Y-58.2
X204.7Y-59.2
X204.7Y-60.5
X204.7Y-61.5
X204.7Y-62.5
X204.7Y-63.9
X204.7Y-64.9
X204.7Y-65.8
X204.76Y-87.752
X204.76Y-89.453
X205.46Y-48.352
X205.66Y-95.252
X205.86Y-50.052
X205.86Y-52.552
X205.86Y-57.552
X205.86Y-60.052
X205.86Y-62.552
X205.86Y-65.052
X205.86Y-70.052
X205.86Y-72.552
X205.86Y-75.052
X205.86Y-77.552
X205.86Y-80.052
X205.86Y-82.552
X205.86Y-85.052
X205.86Y-87.552
X205.96Y-89.953
X206.46Y-43.252
X207.06Y-47.453
X207.16Y-48.953
X207.16Y-51.352
X207.16Y-54.953
X207.16Y-58.752
X207.16Y-61.352
X207.16Y-63.953
X207.16Y-67.552
X207.16Y-71.352
X207.16Y-73.953
X207.16Y-76.352
X207.16Y-78.953
X207.16Y-81.352
X207.16Y-83.953
X207.16Y-86.352
X207.16Y-88.953
X207.16Y-96.552
X207.26Y-91.052
X207.36Y-93.852
X207.56Y-44.752
X207.76Y-86.953
T3
X127.4Y-86.2
X127.4Y-87.5
X127.4Y-88.8
X128.7Y-86.2
X128.7Y-87.5
X128.7Y-88.8
T5
X98.1Y-47.2
X98.1Y-49.2
X100.1Y-47.2
X100.1Y-49.2
X102.1Y-47.2
X102.1Y-49.2
X104.1Y-47.2
X104.1Y-49.2
X106.1Y-47.2
X106.1Y-49.2
T6
X97.01Y-59.842
X97.01Y-62.383
X205.175Y-55.0
X205.175Y-68.0
T7
X96.92Y-67.735
X96.92Y-70.275
X132.19Y-45.9
X134.73Y-45.9
X137.27Y-45.9
X139.81Y-45.9
X148.02Y-45.907
X150.56Y-45.907
X153.1Y-45.907
X155.64Y-45.907
X158.18Y-45.907
T8
X200.175Y-58.0
X200.175Y-61.5
X200.175Y-65.0
T9
X199.9Y-84.4
X199.9Y-89.4
T10
X118.41Y-49.04
X124.19Y-49.04
T11
X98.36Y-54.052
X98.36Y-92.552
X204.86Y-45.552
X204.86Y-92.552
T4
X116.98Y-45.69G85X116.98Y-45.09
G05
X116.98Y-50.12G85X116.98Y-49.02
G05
X125.62Y-45.69G85X125.62Y-45.09
G05
X125.62Y-50.12G85X125.62Y-49.02
G05
M30
