G04 #@! TF.GenerationSoftware,KiCad,Pcbnew,9.0.3*
G04 #@! TF.CreationDate,2025-08-13T17:47:10+01:00*
G04 #@! TF.ProjectId,Pico-BLDC-Controller,5069636f-2d42-44c4-9443-2d436f6e7472,rev?*
G04 #@! TF.SameCoordinates,Original*
G04 #@! TF.FileFunction,Soldermask,Top*
G04 #@! TF.FilePolarity,Negative*
%FSLAX46Y46*%
G04 Gerber Fmt 4.6, Leading zero omitted, Abs format (unit mm)*
G04 Created by KiCad (PCBNEW 9.0.3) date 2025-08-13 17:47:10*
%MOMM*%
%LPD*%
G01*
G04 APERTURE LIST*
G04 Aperture macros list*
%AMRoundRect*
0 Rectangle with rounded corners*
0 $1 Rounding radius*
0 $2 $3 $4 $5 $6 $7 $8 $9 X,Y pos of 4 corners*
0 Add a 4 corners polygon primitive as box body*
4,1,4,$2,$3,$4,$5,$6,$7,$8,$9,$2,$3,0*
0 Add four circle primitives for the rounded corners*
1,1,$1+$1,$2,$3*
1,1,$1+$1,$4,$5*
1,1,$1+$1,$6,$7*
1,1,$1+$1,$8,$9*
0 Add four rect primitives between the rounded corners*
20,1,$1+$1,$2,$3,$4,$5,0*
20,1,$1+$1,$4,$5,$6,$7,0*
20,1,$1+$1,$6,$7,$8,$9,0*
20,1,$1+$1,$8,$9,$2,$3,0*%
%AMFreePoly0*
4,1,18,-0.100000,0.387500,-0.096194,0.406634,-0.085355,0.422855,-0.069134,0.433694,-0.050000,0.437500,0.050000,0.437500,0.069134,0.433694,0.085355,0.422855,0.096194,0.406634,0.100000,0.387500,0.100000,-0.387500,0.096194,-0.406634,0.085355,-0.422855,0.069134,-0.433694,0.050000,-0.437500,-0.050000,-0.437500,-0.100000,-0.387500,-0.100000,0.387500,-0.100000,0.387500,$1*%
%AMFreePoly1*
4,1,18,-0.100000,0.387500,-0.096194,0.406634,-0.085355,0.422855,-0.069134,0.433694,-0.050000,0.437500,0.050000,0.437500,0.069134,0.433694,0.085355,0.422855,0.096194,0.406634,0.100000,0.387500,0.100000,-0.387500,0.050000,-0.437500,-0.050000,-0.437500,-0.069134,-0.433694,-0.085355,-0.422855,-0.096194,-0.406634,-0.100000,-0.387500,-0.100000,0.387500,-0.100000,0.387500,$1*%
%AMFreePoly2*
4,1,18,-0.437500,0.050000,-0.387500,0.100000,0.387500,0.100000,0.406634,0.096194,0.422855,0.085355,0.433694,0.069134,0.437500,0.050000,0.437500,-0.050000,0.433694,-0.069134,0.422855,-0.085355,0.406634,-0.096194,0.387500,-0.100000,-0.387500,-0.100000,-0.406634,-0.096194,-0.422855,-0.085355,-0.433694,-0.069134,-0.437500,-0.050000,-0.437500,0.050000,-0.437500,0.050000,$1*%
%AMFreePoly3*
4,1,18,-0.437500,0.050000,-0.433694,0.069134,-0.422855,0.085355,-0.406634,0.096194,-0.387500,0.100000,0.387500,0.100000,0.406634,0.096194,0.422855,0.085355,0.433694,0.069134,0.437500,0.050000,0.437500,-0.050000,0.433694,-0.069134,0.422855,-0.085355,0.406634,-0.096194,0.387500,-0.100000,-0.387500,-0.100000,-0.437500,-0.050000,-0.437500,0.050000,-0.437500,0.050000,$1*%
%AMFreePoly4*
4,1,18,-0.100000,0.387500,-0.096194,0.406634,-0.085355,0.422855,-0.069134,0.433694,-0.050000,0.437500,0.050000,0.437500,0.100000,0.387500,0.100000,-0.387500,0.096194,-0.406634,0.085355,-0.422855,0.069134,-0.433694,0.050000,-0.437500,-0.050000,-0.437500,-0.069134,-0.433694,-0.085355,-0.422855,-0.096194,-0.406634,-0.100000,-0.387500,-0.100000,0.387500,-0.100000,0.387500,$1*%
%AMFreePoly5*
4,1,18,-0.100000,0.387500,-0.050000,0.437500,0.050000,0.437500,0.069134,0.433694,0.085355,0.422855,0.096194,0.406634,0.100000,0.387500,0.100000,-0.387500,0.096194,-0.406634,0.085355,-0.422855,0.069134,-0.433694,0.050000,-0.437500,-0.050000,-0.437500,-0.069134,-0.433694,-0.085355,-0.422855,-0.096194,-0.406634,-0.100000,-0.387500,-0.100000,0.387500,-0.100000,0.387500,$1*%
%AMFreePoly6*
4,1,18,-0.437500,0.050000,-0.433694,0.069134,-0.422855,0.085355,-0.406634,0.096194,-0.387500,0.100000,0.387500,0.100000,0.406634,0.096194,0.422855,0.085355,0.433694,0.069134,0.437500,0.050000,0.437500,-0.050000,0.387500,-0.100000,-0.387500,-0.100000,-0.406634,-0.096194,-0.422855,-0.085355,-0.433694,-0.069134,-0.437500,-0.050000,-0.437500,0.050000,-0.437500,0.050000,$1*%
%AMFreePoly7*
4,1,18,-0.437500,0.050000,-0.433694,0.069134,-0.422855,0.085355,-0.406634,0.096194,-0.387500,0.100000,0.387500,0.100000,0.437500,0.050000,0.437500,-0.050000,0.433694,-0.069134,0.422855,-0.085355,0.406634,-0.096194,0.387500,-0.100000,-0.387500,-0.100000,-0.406634,-0.096194,-0.422855,-0.085355,-0.433694,-0.069134,-0.437500,-0.050000,-0.437500,0.050000,-0.437500,0.050000,$1*%
G04 Aperture macros list end*
%ADD10C,0.000000*%
%ADD11C,2.700000*%
%ADD12O,1.000000X1.600000*%
%ADD13O,1.000000X2.100000*%
%ADD14R,0.600000X1.450000*%
%ADD15R,0.300000X1.450000*%
%ADD16C,0.650000*%
%ADD17C,3.000000*%
%ADD18R,3.000000X3.000000*%
%ADD19C,1.400000*%
%ADD20C,0.629999*%
%ADD21R,2.200001X0.499999*%
%ADD22RoundRect,0.153000X1.547000X1.547000X-1.547000X1.547000X-1.547000X-1.547000X1.547000X-1.547000X0*%
%ADD23FreePoly0,90.000000*%
%ADD24RoundRect,0.050000X0.387500X-0.050000X0.387500X0.050000X-0.387500X0.050000X-0.387500X-0.050000X0*%
%ADD25FreePoly1,90.000000*%
%ADD26FreePoly2,90.000000*%
%ADD27RoundRect,0.050000X0.050000X-0.387500X0.050000X0.387500X-0.050000X0.387500X-0.050000X-0.387500X0*%
%ADD28FreePoly3,90.000000*%
%ADD29FreePoly4,90.000000*%
%ADD30FreePoly5,90.000000*%
%ADD31FreePoly6,90.000000*%
%ADD32FreePoly7,90.000000*%
%ADD33C,1.000000*%
%ADD34R,1.270000X0.610000*%
%ADD35R,3.810000X3.910000*%
%ADD36R,1.020000X0.610000*%
%ADD37RoundRect,0.250000X0.650000X-0.325000X0.650000X0.325000X-0.650000X0.325000X-0.650000X-0.325000X0*%
%ADD38RoundRect,0.237500X-0.250000X-0.237500X0.250000X-0.237500X0.250000X0.237500X-0.250000X0.237500X0*%
%ADD39RoundRect,0.237500X-0.237500X0.300000X-0.237500X-0.300000X0.237500X-0.300000X0.237500X0.300000X0*%
%ADD40RoundRect,0.250000X-1.100000X0.412500X-1.100000X-0.412500X1.100000X-0.412500X1.100000X0.412500X0*%
%ADD41R,0.650000X1.050000*%
%ADD42RoundRect,0.375000X-1.125000X-2.000000X1.125000X-2.000000X1.125000X2.000000X-1.125000X2.000000X0*%
%ADD43R,1.700000X0.800000*%
%ADD44R,2.500000X7.500000*%
%ADD45RoundRect,0.237500X0.237500X-0.300000X0.237500X0.300000X-0.237500X0.300000X-0.237500X-0.300000X0*%
%ADD46RoundRect,0.249999X-0.450001X-1.425001X0.450001X-1.425001X0.450001X1.425001X-0.450001X1.425001X0*%
%ADD47RoundRect,0.250000X1.100000X-0.325000X1.100000X0.325000X-1.100000X0.325000X-1.100000X-0.325000X0*%
%ADD48RoundRect,0.237500X0.250000X0.237500X-0.250000X0.237500X-0.250000X-0.237500X0.250000X-0.237500X0*%
%ADD49RoundRect,0.237500X-0.300000X-0.237500X0.300000X-0.237500X0.300000X0.237500X-0.300000X0.237500X0*%
%ADD50RoundRect,0.237500X0.237500X-0.250000X0.237500X0.250000X-0.237500X0.250000X-0.237500X-0.250000X0*%
%ADD51RoundRect,0.250000X0.845000X-0.620000X0.845000X0.620000X-0.845000X0.620000X-0.845000X-0.620000X0*%
%ADD52O,2.190000X1.740000*%
%ADD53RoundRect,0.250000X0.650000X-1.000000X0.650000X1.000000X-0.650000X1.000000X-0.650000X-1.000000X0*%
%ADD54RoundRect,0.250000X-0.620000X-0.845000X0.620000X-0.845000X0.620000X0.845000X-0.620000X0.845000X0*%
%ADD55O,1.740000X2.190000*%
%ADD56O,0.240000X0.599999*%
%ADD57O,0.599999X0.240000*%
%ADD58C,0.499999*%
%ADD59R,3.450001X3.450001*%
%ADD60RoundRect,0.237500X0.044194X0.380070X-0.380070X-0.044194X-0.044194X-0.380070X0.380070X0.044194X0*%
%ADD61RoundRect,0.250000X0.689429X0.229810X0.229810X0.689429X-0.689429X-0.229810X-0.229810X-0.689429X0*%
%ADD62RoundRect,0.250000X-0.450000X-0.350000X0.450000X-0.350000X0.450000X0.350000X-0.450000X0.350000X0*%
%ADD63RoundRect,0.200000X0.200000X0.275000X-0.200000X0.275000X-0.200000X-0.275000X0.200000X-0.275000X0*%
%ADD64RoundRect,0.249999X0.640001X1.530001X-0.640001X1.530001X-0.640001X-1.530001X0.640001X-1.530001X0*%
%ADD65RoundRect,0.237500X0.300000X0.237500X-0.300000X0.237500X-0.300000X-0.237500X0.300000X-0.237500X0*%
%ADD66R,1.700000X1.700000*%
%ADD67C,1.700000*%
%ADD68RoundRect,0.237500X-0.237500X0.250000X-0.237500X-0.250000X0.237500X-0.250000X0.237500X0.250000X0*%
%ADD69R,3.800000X3.800000*%
%ADD70C,3.800000*%
%ADD71RoundRect,0.250000X-0.350000X-0.350000X0.350000X-0.350000X0.350000X0.350000X-0.350000X0.350000X0*%
%ADD72C,1.200000*%
%ADD73RoundRect,0.250000X-1.000000X-0.650000X1.000000X-0.650000X1.000000X0.650000X-1.000000X0.650000X0*%
%ADD74RoundRect,0.150000X0.150000X-0.512500X0.150000X0.512500X-0.150000X0.512500X-0.150000X-0.512500X0*%
%ADD75RoundRect,0.062500X0.337500X0.062500X-0.337500X0.062500X-0.337500X-0.062500X0.337500X-0.062500X0*%
%ADD76RoundRect,0.150000X-0.512500X-0.150000X0.512500X-0.150000X0.512500X0.150000X-0.512500X0.150000X0*%
%ADD77RoundRect,0.150000X0.150000X0.625000X-0.150000X0.625000X-0.150000X-0.625000X0.150000X-0.625000X0*%
%ADD78RoundRect,0.250000X0.350000X0.650000X-0.350000X0.650000X-0.350000X-0.650000X0.350000X-0.650000X0*%
%ADD79RoundRect,0.250000X-0.650000X0.325000X-0.650000X-0.325000X0.650000X-0.325000X0.650000X0.325000X0*%
%ADD80RoundRect,0.150000X-0.150000X0.587500X-0.150000X-0.587500X0.150000X-0.587500X0.150000X0.587500X0*%
%ADD81RoundRect,0.250000X0.337500X0.475000X-0.337500X0.475000X-0.337500X-0.475000X0.337500X-0.475000X0*%
%ADD82RoundRect,0.249999X2.500001X-1.250001X2.500001X1.250001X-2.500001X1.250001X-2.500001X-1.250001X0*%
%ADD83RoundRect,0.249999X-1.210920X2.253904X-2.253904X1.210920X1.210920X-2.253904X2.253904X-1.210920X0*%
%ADD84R,1.700000X0.700000*%
%ADD85RoundRect,0.250000X0.325000X0.650000X-0.325000X0.650000X-0.325000X-0.650000X0.325000X-0.650000X0*%
%ADD86RoundRect,0.162500X0.162500X-0.650000X0.162500X0.650000X-0.162500X0.650000X-0.162500X-0.650000X0*%
%ADD87RoundRect,0.237500X0.287500X0.237500X-0.287500X0.237500X-0.287500X-0.237500X0.287500X-0.237500X0*%
G04 APERTURE END LIST*
D10*
G36*
X129249998Y-86000000D02*
G01*
X129249998Y-89000000D01*
X129199998Y-89049999D01*
X126899998Y-89049999D01*
X126849998Y-89000000D01*
X126849998Y-86000000D01*
X126899998Y-85950001D01*
X129199998Y-85950001D01*
X129249998Y-86000000D01*
G37*
D11*
X204860000Y-92552500D03*
X204860000Y-45552500D03*
X98360000Y-54052500D03*
X98360000Y-92552500D03*
D12*
X116980000Y-45390000D03*
D13*
X116980000Y-49570000D03*
D12*
X125620000Y-45390000D03*
D13*
X125620000Y-49570000D03*
D14*
X124550000Y-50485000D03*
X123750000Y-50485000D03*
D15*
X123050000Y-50485000D03*
X122050000Y-50485000D03*
X120550000Y-50485000D03*
X119550000Y-50485000D03*
D14*
X118850000Y-50485000D03*
X118050000Y-50485000D03*
X118050000Y-50485000D03*
X118850000Y-50485000D03*
D15*
X120050000Y-50485000D03*
X121050000Y-50485000D03*
X121550000Y-50485000D03*
X122550000Y-50485000D03*
D14*
X123750000Y-50485000D03*
X124550000Y-50485000D03*
D16*
X118410000Y-49040000D03*
X124190000Y-49040000D03*
D17*
X200175000Y-58000000D03*
X200175000Y-61500000D03*
D18*
X200175000Y-65000000D03*
D19*
X205175000Y-68000000D03*
X205175000Y-55000000D03*
D20*
X127399997Y-86200000D03*
X127399997Y-87500000D03*
X127399997Y-88800000D03*
X128699999Y-86200000D03*
X128699999Y-87500000D03*
X128699999Y-88800000D03*
D21*
X130924966Y-85595000D03*
X130924966Y-86865000D03*
X130924966Y-88135000D03*
X130924966Y-89405000D03*
X125175030Y-89405000D03*
X125175030Y-88135000D03*
X125175030Y-86865000D03*
X125175030Y-85595000D03*
D22*
X150575000Y-60275000D03*
D23*
X147137500Y-63075000D03*
D24*
X147137500Y-62675000D03*
X147137500Y-62275000D03*
X147137500Y-61875000D03*
X147137500Y-61475000D03*
X147137500Y-61075000D03*
X147137500Y-60675000D03*
X147137500Y-60275000D03*
X147137500Y-59875000D03*
X147137500Y-59475000D03*
X147137500Y-59075000D03*
X147137500Y-58675000D03*
X147137500Y-58275000D03*
X147137500Y-57875000D03*
D25*
X147137500Y-57475000D03*
D26*
X147775000Y-56837500D03*
D27*
X148175000Y-56837500D03*
X148575000Y-56837500D03*
X148975000Y-56837500D03*
X149375000Y-56837500D03*
X149775000Y-56837500D03*
X150175000Y-56837500D03*
X150575000Y-56837500D03*
X150975000Y-56837500D03*
X151375000Y-56837500D03*
X151775000Y-56837500D03*
X152175000Y-56837500D03*
X152575000Y-56837500D03*
X152975000Y-56837500D03*
D28*
X153375000Y-56837500D03*
D29*
X154012500Y-57475000D03*
D24*
X154012500Y-57875000D03*
X154012500Y-58275000D03*
X154012500Y-58675000D03*
X154012500Y-59075000D03*
X154012500Y-59475000D03*
X154012500Y-59875000D03*
X154012500Y-60275000D03*
X154012500Y-60675000D03*
X154012500Y-61075000D03*
X154012500Y-61475000D03*
X154012500Y-61875000D03*
X154012500Y-62275000D03*
X154012500Y-62675000D03*
D30*
X154012500Y-63075000D03*
D31*
X153375000Y-63712500D03*
D27*
X152975000Y-63712500D03*
X152575000Y-63712500D03*
X152175000Y-63712500D03*
X151775000Y-63712500D03*
X151375000Y-63712500D03*
X150975000Y-63712500D03*
X150575000Y-63712500D03*
X150175000Y-63712500D03*
X149775000Y-63712500D03*
X149375000Y-63712500D03*
X148975000Y-63712500D03*
X148575000Y-63712500D03*
X148175000Y-63712500D03*
D32*
X147775000Y-63712500D03*
D33*
X106070000Y-60842500D03*
D34*
X185700000Y-55100000D03*
X185700000Y-53830000D03*
X185700000Y-52560000D03*
X185700000Y-51290000D03*
D35*
X182340000Y-53195000D03*
D36*
X180235000Y-55100000D03*
X180235000Y-53830000D03*
X180235000Y-52560000D03*
X180235000Y-51290000D03*
D37*
X178250000Y-77725000D03*
X178250000Y-74775000D03*
D38*
X148775000Y-50137500D03*
X150600000Y-50137500D03*
D39*
X137287500Y-64420000D03*
X137287500Y-66145000D03*
D38*
X107687500Y-91250000D03*
X109512500Y-91250000D03*
D40*
X117500000Y-78987500D03*
X117500000Y-82112500D03*
D41*
X128760000Y-67518675D03*
X128760000Y-63368675D03*
X130910000Y-67518675D03*
X130910000Y-63393675D03*
D42*
X183150000Y-87300000D03*
X191650000Y-87300000D03*
D43*
X114539448Y-71020000D03*
X114539448Y-69420000D03*
D44*
X145200000Y-91750000D03*
X145200000Y-78250000D03*
D33*
X113600000Y-64400000D03*
D45*
X123174998Y-87012500D03*
X123174998Y-85287500D03*
D46*
X188450000Y-61500000D03*
X194550000Y-61500000D03*
D47*
X117574998Y-88225000D03*
X117574998Y-85275000D03*
D48*
X157512500Y-50137500D03*
X155687500Y-50137500D03*
D38*
X140312500Y-54700000D03*
X142137500Y-54700000D03*
D49*
X159737499Y-58950000D03*
X161462501Y-58950000D03*
D34*
X180235000Y-62345000D03*
X180235000Y-63615000D03*
X180235000Y-64885000D03*
X180235000Y-66155000D03*
D35*
X183595000Y-64250000D03*
D36*
X185700000Y-62345000D03*
X185700000Y-63615000D03*
X185700000Y-64885000D03*
X185700000Y-66155000D03*
D50*
X137230000Y-52012500D03*
X137230000Y-50187500D03*
D51*
X96920000Y-70275000D03*
D52*
X96920000Y-67735000D03*
D53*
X102900000Y-71000000D03*
X102900000Y-67000000D03*
D54*
X132190000Y-45900000D03*
D55*
X134730000Y-45900000D03*
X137270000Y-45900000D03*
X139810000Y-45900000D03*
D56*
X169300001Y-61600000D03*
X169800000Y-61600000D03*
X170299999Y-61600000D03*
X170800000Y-61600000D03*
X171300000Y-61600000D03*
X171799998Y-61600000D03*
X172300000Y-61600000D03*
X172799999Y-61600000D03*
D57*
X173450000Y-60949999D03*
X173450000Y-60450000D03*
X173450000Y-59950001D03*
X173450000Y-59450000D03*
X173450000Y-58950000D03*
X173450000Y-58450002D03*
X173450000Y-57950000D03*
X173450000Y-57450001D03*
D56*
X172799999Y-56800000D03*
X172300000Y-56800000D03*
X171799998Y-56800000D03*
X171300000Y-56800000D03*
X170800000Y-56800000D03*
X170299999Y-56800000D03*
X169800000Y-56800000D03*
X169300001Y-56800000D03*
D57*
X168650000Y-57450001D03*
X168650000Y-57950000D03*
X168650000Y-58450002D03*
X168650000Y-58950000D03*
X168650000Y-59450000D03*
X168650000Y-59950001D03*
X168650000Y-60450000D03*
X168650000Y-60949999D03*
D58*
X171050000Y-60650000D03*
X169600000Y-59200000D03*
X171050000Y-59200000D03*
D59*
X171050000Y-59200000D03*
D58*
X172500000Y-59200000D03*
X171050000Y-57750000D03*
D40*
X120800000Y-78987500D03*
X120800000Y-82112500D03*
D39*
X138800000Y-64420000D03*
X138800000Y-66145000D03*
D60*
X167744886Y-64305114D03*
X166525126Y-65524874D03*
D45*
X116439448Y-71882500D03*
X116439448Y-70157500D03*
X150200000Y-53862500D03*
X150200000Y-52137500D03*
D61*
X173907977Y-66977989D03*
X171822011Y-64892023D03*
D62*
X159500000Y-62300000D03*
X161700000Y-62300000D03*
X161700000Y-60600000D03*
X159500000Y-60600000D03*
D63*
X171925000Y-48300000D03*
X170275000Y-48300000D03*
D45*
X132974998Y-87000000D03*
X132974998Y-85275000D03*
D64*
X133100000Y-79000000D03*
X123700000Y-79000000D03*
D47*
X114374998Y-88225000D03*
X114374998Y-85275000D03*
D63*
X119564448Y-73320000D03*
X117914448Y-73320000D03*
D46*
X188450000Y-49300000D03*
X194550000Y-49300000D03*
D34*
X180240000Y-67895000D03*
X180240000Y-69165000D03*
X180240000Y-70435000D03*
X180240000Y-71705000D03*
D35*
X183600000Y-69800000D03*
D36*
X185705000Y-67895000D03*
X185705000Y-69165000D03*
X185705000Y-70435000D03*
X185705000Y-71705000D03*
D38*
X129062498Y-91100000D03*
X130887498Y-91100000D03*
D65*
X166255000Y-60450000D03*
X164530000Y-60450000D03*
D66*
X97010000Y-59842500D03*
D67*
X97010000Y-62382500D03*
D68*
X123250000Y-53440000D03*
X123250000Y-55265000D03*
D50*
X120739448Y-71532500D03*
X120739448Y-69707500D03*
X118350000Y-55265000D03*
X118350000Y-53440000D03*
D39*
X150200000Y-67237500D03*
X150200000Y-68962500D03*
D69*
X199900000Y-84400000D03*
D70*
X199900000Y-89400000D03*
D50*
X139830000Y-52012500D03*
X139830000Y-50187500D03*
X157700000Y-61112500D03*
X157700000Y-59287500D03*
D68*
X111050000Y-88237500D03*
X111050000Y-90062500D03*
D71*
X98100000Y-47200000D03*
D72*
X98100000Y-49200000D03*
X100100000Y-47200000D03*
X100100000Y-49200000D03*
X102100000Y-47200000D03*
X102100000Y-49200000D03*
X104100000Y-47200000D03*
X104100000Y-49200000D03*
X106100000Y-47200000D03*
X106100000Y-49200000D03*
D47*
X120774998Y-88225000D03*
X120774998Y-85275000D03*
D73*
X110860000Y-54352500D03*
X114860000Y-54352500D03*
D74*
X119850000Y-55487500D03*
X120800000Y-55487500D03*
X121750000Y-55487500D03*
X121750000Y-53212500D03*
X120800000Y-53212500D03*
X119850000Y-53212500D03*
D33*
X114300000Y-74800000D03*
D38*
X132962498Y-90100000D03*
X134787498Y-90100000D03*
D49*
X143662500Y-54700000D03*
X145387500Y-54700000D03*
D39*
X123739448Y-69757500D03*
X123739448Y-71482500D03*
D75*
X119300000Y-72000000D03*
X119300000Y-71500000D03*
X119300000Y-71000000D03*
X119300000Y-70500000D03*
X117850000Y-70500000D03*
X117850000Y-71000000D03*
X117850000Y-71500000D03*
X117850000Y-72000000D03*
D38*
X107700000Y-89750000D03*
X109525000Y-89750000D03*
D48*
X126887498Y-91100000D03*
X125062498Y-91100000D03*
D76*
X107112500Y-86350000D03*
X107112500Y-87300000D03*
X107112500Y-88250000D03*
X109387500Y-88250000D03*
X109387500Y-87300000D03*
X109387500Y-86350000D03*
D68*
X111050000Y-84937500D03*
X111050000Y-86762500D03*
X108860000Y-66190000D03*
X108860000Y-68015000D03*
D38*
X132962498Y-88600000D03*
X134787498Y-88600000D03*
D49*
X116476948Y-65620000D03*
X118201948Y-65620000D03*
D54*
X148020000Y-45907500D03*
D55*
X150560000Y-45907500D03*
X153100000Y-45907500D03*
X155640000Y-45907500D03*
X158180000Y-45907500D03*
D77*
X165300000Y-47900000D03*
X164300000Y-47900000D03*
X163300000Y-47900000D03*
D78*
X166600000Y-44025000D03*
X162000000Y-44025000D03*
D79*
X178200000Y-59775000D03*
X178200000Y-62725000D03*
D65*
X106162500Y-89750000D03*
X104437500Y-89750000D03*
D34*
X185700000Y-60655000D03*
X185700000Y-59385000D03*
X185700000Y-58115000D03*
X185700000Y-56845000D03*
D35*
X182340000Y-58750000D03*
D36*
X180235000Y-60655000D03*
X180235000Y-59385000D03*
X180235000Y-58115000D03*
X180235000Y-56845000D03*
D48*
X154012500Y-52100000D03*
X152187500Y-52100000D03*
D44*
X166200000Y-91750000D03*
X166200000Y-78250000D03*
D38*
X141906481Y-61367304D03*
X143731481Y-61367304D03*
D33*
X97000000Y-74200000D03*
D80*
X107360000Y-66465000D03*
X105460000Y-66465000D03*
X106410000Y-68340000D03*
D38*
X152187500Y-50137500D03*
X154012500Y-50137500D03*
D81*
X166637500Y-62400000D03*
X164562500Y-62400000D03*
D65*
X166255000Y-58950000D03*
X164530000Y-58950000D03*
D49*
X159737499Y-63950000D03*
X161462501Y-63950000D03*
D82*
X99800000Y-87300000D03*
X99800000Y-77800000D03*
D45*
X143400000Y-58112500D03*
X143400000Y-56387500D03*
D38*
X99677500Y-62242500D03*
X101502500Y-62242500D03*
D40*
X107700000Y-77825000D03*
X107700000Y-80950000D03*
D50*
X132522101Y-58285390D03*
X132522101Y-56460390D03*
D34*
X180240000Y-44585000D03*
X180240000Y-45855000D03*
X180240000Y-47125000D03*
X180240000Y-48395000D03*
D35*
X183600000Y-46490000D03*
D36*
X185705000Y-44585000D03*
X185705000Y-45855000D03*
X185705000Y-47125000D03*
X185705000Y-48395000D03*
D49*
X116476948Y-67120000D03*
X118201948Y-67120000D03*
D65*
X109150000Y-84850000D03*
X107425000Y-84850000D03*
D41*
X130947101Y-54097890D03*
X130947101Y-58247890D03*
X128797101Y-54097890D03*
X128797101Y-58222890D03*
D34*
X185770000Y-78405000D03*
X185770000Y-77135000D03*
X185770000Y-75865000D03*
X185770000Y-74595000D03*
D35*
X182410000Y-76500000D03*
D36*
X180305000Y-78405000D03*
X180305000Y-77135000D03*
X180305000Y-75865000D03*
X180305000Y-74595000D03*
D83*
X170364994Y-66935006D03*
X166635006Y-70664994D03*
D38*
X141906481Y-59867304D03*
X143731481Y-59867304D03*
D39*
X148700000Y-67237500D03*
X148700000Y-68962500D03*
D45*
X144900000Y-58112500D03*
X144900000Y-56387500D03*
D39*
X113600000Y-79637500D03*
X113600000Y-81362500D03*
D84*
X141600000Y-58400000D03*
X141600000Y-57000000D03*
D85*
X178660000Y-53200000D03*
X175710000Y-53200000D03*
D86*
X140645000Y-71607500D03*
X141915000Y-71607500D03*
X143185000Y-71607500D03*
X144455000Y-71607500D03*
X144455000Y-64432500D03*
X143185000Y-64432500D03*
X141915000Y-64432500D03*
X140645000Y-64432500D03*
D50*
X157100000Y-68512500D03*
X157100000Y-66687500D03*
D39*
X115100000Y-79637500D03*
X115100000Y-81362500D03*
D46*
X188450000Y-73800000D03*
X194550000Y-73800000D03*
D68*
X132550000Y-65761175D03*
X132550000Y-67586175D03*
D49*
X116476948Y-68620000D03*
X118201948Y-68620000D03*
D68*
X122239448Y-69707500D03*
X122239448Y-71532500D03*
D87*
X171975000Y-46550000D03*
X170225000Y-46550000D03*
D48*
X106200000Y-91250000D03*
X104375000Y-91250000D03*
M02*
